<svg width="116" height="157" viewBox="0 0 116 157" fill="none" xmlns="http://www.w3.org/2000/svg">
<path d="M109.424 0.5H6C2.96243 0.5 0.5 2.96243 0.5 6V150.237C0.5 153.275 2.96243 155.737 6 155.737H109.424C112.462 155.737 114.924 153.275 114.924 150.237V6C114.924 2.96243 112.462 0.5 109.424 0.5Z" fill="white"/>
<path d="M109.424 0H6C2.68629 0 0 2.68629 0 6V29.6409C0 32.9546 2.68629 35.6409 6 35.6409H109.424C112.738 35.6409 115.424 32.9546 115.424 29.6409V6C115.424 2.68629 112.738 0 109.424 0Z" fill="url(#paint0_linear)"/>
<path d="M109.424 142.225H6C2.68629 142.225 0 144.911 0 148.225V150.284C0 153.597 2.68629 156.284 6 156.284H109.424C112.738 156.284 115.424 153.597 115.424 150.284V148.225C115.424 144.911 112.738 142.225 109.424 142.225Z" fill="url(#paint1_linear)"/>
<path d="M79.5276 10.7019H33.2538C30.9217 10.7019 29.0312 12.5924 29.0312 14.9245C29.0312 17.2565 30.9217 19.147 33.2538 19.147H79.5276C81.8596 19.147 83.7501 17.2565 83.7501 14.9245C83.7501 12.5924 81.8596 10.7019 79.5276 10.7019Z" fill="white"/>
<path d="M68.7248 22.645H44.0617C42.6534 22.645 41.5117 23.7867 41.5117 25.195C41.5117 26.6034 42.6534 27.745 44.0617 27.745H68.7248C70.1331 27.745 71.2748 26.6034 71.2748 25.195C71.2748 23.7867 70.1331 22.645 68.7248 22.645Z" fill="white"/>
<path d="M105.787 105.018H11.2538C8.92172 105.018 7.03122 106.909 7.03122 109.241C7.03122 111.573 8.92172 113.463 11.2538 113.463H105.787C108.119 113.463 110.009 111.573 110.009 109.241C110.009 106.909 108.119 105.018 105.787 105.018Z" fill="#003F66"/>
<path d="M24.7057 116.962H11.2538C8.92172 116.962 7.03122 118.853 7.03122 121.185C7.03122 123.517 8.92172 125.407 11.2538 125.407H24.7057C27.0377 125.407 28.9282 123.517 28.9282 121.185C28.9282 118.853 27.0377 116.962 24.7057 116.962Z" fill="#003F66"/>
<path d="M51.7643 116.962H38.3124C35.9803 116.962 34.0898 118.853 34.0898 121.185C34.0898 123.517 35.9803 125.407 38.3124 125.407H51.7643C54.0963 125.407 55.9868 123.517 55.9868 121.185C55.9868 118.853 54.0963 116.962 51.7643 116.962Z" fill="#003F66"/>
<path d="M78.8229 116.962H65.371C63.0389 116.962 61.1484 118.853 61.1484 121.185C61.1484 123.517 63.0389 125.407 65.371 125.407H78.8229C81.1549 125.407 83.0454 123.517 83.0454 121.185C83.0454 118.853 81.1549 116.962 78.8229 116.962Z" fill="#003F66"/>
<path d="M105.878 116.962H92.4257C90.0936 116.962 88.2031 118.853 88.2031 121.185C88.2031 123.517 90.0936 125.407 92.4257 125.407H105.878C108.21 125.407 110.1 123.517 110.1 121.185C110.1 118.853 108.21 116.962 105.878 116.962Z" fill="#003F66"/>
<path d="M107.871 147.116H9.16955C7.98858 147.116 7.03122 148.073 7.03122 149.254C7.03122 150.435 7.98858 151.393 9.16955 151.393H107.871C109.052 151.393 110.009 150.435 110.009 149.254C110.009 148.073 109.052 147.116 107.871 147.116Z" fill="white"/>
<path d="M73.7909 40.9016H41.6366C39.3045 40.9016 37.414 42.7921 37.414 45.1242V75.2568C37.414 77.5888 39.3045 79.4793 41.6366 79.4793H73.7909C76.1229 79.4793 78.0134 77.5888 78.0134 75.2568V45.1242C78.0134 42.7921 76.1229 40.9016 73.7909 40.9016Z" fill="#003F66"/>
<path d="M69.5942 83.7773H45.8264C44.8997 83.7773 44.1484 84.5286 44.1484 85.4554V85.4554C44.1484 86.3821 44.8997 87.1334 45.8264 87.1334H69.5942C70.521 87.1334 71.2722 86.3821 71.2722 85.4554C71.2722 84.5286 70.521 83.7773 69.5942 83.7773Z" fill="#003F66"/>
<path d="M72.3443 90.8218H43.0842C42.1575 90.8218 41.4062 91.5731 41.4062 92.4998V92.4999C41.4062 93.4266 42.1575 94.1779 43.0842 94.1779H72.3443C73.271 94.1779 74.0223 93.4266 74.0223 92.4998C74.0223 91.5731 73.271 90.8218 72.3443 90.8218Z" fill="#003F66"/>
<defs>
<linearGradient id="paint0_linear" x1="5.34702" y1="-1.45123" x2="130.946" y2="102.847" gradientUnits="userSpaceOnUse">
<stop stop-color="#00CC9B"/>
<stop offset="1" stop-color="#0052CC"/>
</linearGradient>
<linearGradient id="paint1_linear" x1="5.34702" y1="141.652" x2="44.414" y2="223.897" gradientUnits="userSpaceOnUse">
<stop stop-color="#00CC9B"/>
<stop offset="1" stop-color="#0052CC"/>
</linearGradient>
</defs>
</svg>
