<svg width="517" height="680" viewBox="0 0 517 680" fill="none" xmlns="http://www.w3.org/2000/svg">
<g clip-path="url(#clip0)" filter="url(#filter0_d)">
<path fill-rule="evenodd" clip-rule="evenodd" d="M176.771 94.8757C144.861 105.018 127.216 139.108 137.358 171.018L198.905 364.649C201.646 373.273 196.877 382.486 188.253 385.228C179.629 387.969 170.415 383.2 167.674 374.576L106.128 180.944C90.5025 131.787 117.686 79.2699 166.844 63.6449C216.002 48.0199 268.518 75.2034 284.143 124.361L286.633 132.193C289.374 140.817 284.605 150.03 275.981 152.772C267.357 155.513 258.143 150.744 255.402 142.12L252.913 134.288C242.77 102.379 208.68 84.7332 176.771 94.8757Z" fill="url(#paint0_linear)"/>
<mask id="mask0" mask-type="alpha" maskUnits="userSpaceOnUse" x="77" y="35" width="274" height="356">
<path fill-rule="evenodd" clip-rule="evenodd" d="M176.771 94.8757C144.861 105.018 127.216 139.108 137.358 171.018L198.905 364.649C201.646 373.273 196.877 382.486 188.253 385.228C179.629 387.969 170.415 383.2 167.674 374.576L106.128 180.944C90.5025 131.787 117.686 79.2699 166.844 63.6449C216.002 48.0199 268.518 75.2034 284.143 124.361L286.633 132.193C289.374 140.817 284.605 150.03 275.981 152.772C267.357 155.513 258.143 150.744 255.402 142.12L252.913 134.288C242.77 102.379 208.68 84.7332 176.771 94.8757Z" fill="#4D94FF"/>
</mask>
<g mask="url(#mask0)">
<path d="M130.591 138.783C121.068 108.823 144.043 74.3977 182.564 58.9628C186.764 57.2799 189.164 52.7022 187.794 48.3901L182.83 32.7746C181.46 28.4626 176.837 26.0614 172.595 27.635C110.777 50.5648 73.3941 104.979 88.4016 152.193L149.948 345.825C152.69 354.449 164.356 358.438 176.006 354.735C187.656 351.032 194.879 341.039 192.137 332.415L130.591 138.783Z" fill="url(#paint1_linear)"/>
</g>
<path d="M431.528 350.025C459.077 436.698 411.148 529.293 324.476 556.843C237.803 584.392 145.207 536.463 117.658 449.79C90.1086 363.118 138.038 270.522 224.71 242.973C311.383 215.423 403.979 263.352 431.528 350.025Z" fill="url(#paint2_linear)"/>
<mask id="mask1" mask-type="alpha" maskUnits="userSpaceOnUse" x="67" y="193" width="415" height="414">
<path d="M431.532 350.024C459.081 436.697 411.152 529.292 324.479 556.842C237.807 584.391 145.211 536.462 117.662 449.789C90.1125 363.117 138.041 270.521 224.714 242.972C311.387 215.422 403.982 263.351 431.532 350.024Z" fill="url(#paint3_linear)"/>
</mask>
<g mask="url(#mask1)">
<path d="M436.286 343.356C463.835 430.029 415.906 522.624 329.233 550.173C242.561 577.723 149.965 529.794 122.416 443.121C94.8664 356.448 142.795 263.853 229.468 236.303C316.141 208.754 408.736 256.683 436.286 343.356Z" fill="#007D5F"/>
<path d="M445.733 335.194C473.282 421.867 425.353 514.462 338.681 542.012C252.008 569.561 159.412 521.632 131.863 434.959C104.314 348.287 152.243 255.691 238.915 228.142C325.588 200.592 418.184 248.521 445.733 335.194Z" fill="url(#paint4_linear)"/>
</g>
<path d="M301.166 395.342C300.247 392.449 301.05 389.32 302.938 386.942C312.279 375.17 315.782 359.106 310.885 343.7C303.068 319.106 276.805 305.502 252.227 313.314C227.648 321.127 214.06 347.397 221.877 371.991C226.546 386.679 237.793 397.447 251.332 402.075C254.063 403.008 256.339 405.043 257.213 407.794L281.1 482.945C282.471 487.257 287.077 489.641 291.389 488.271L319.289 479.403C323.601 478.032 325.986 473.425 324.615 469.113L301.166 395.342Z" fill="url(#paint5_linear)"/>
</g>
<defs>
<filter id="filter0_d" x="-34.1641" y="0.734863" width="563.836" height="690.276" filterUnits="userSpaceOnUse" color-interpolation-filters="sRGB">
<feFlood flood-opacity="0" result="BackgroundImageFix"/>
<feColorMatrix in="SourceAlpha" type="matrix" values="0 0 0 0 0 0 0 0 0 0 0 0 0 0 0 0 0 0 127 0"/>
<feMorphology radius="5" operator="erode" in="SourceAlpha" result="effect1_dropShadow"/>
<feOffset dy="38"/>
<feGaussianBlur stdDeviation="20"/>
<feColorMatrix type="matrix" values="0 0 0 0 0.0352941 0 0 0 0 0.498039 0 0 0 0 0.788235 0 0 0 0.15 0"/>
<feBlend mode="normal" in2="BackgroundImageFix" result="effect1_dropShadow"/>
<feBlend mode="normal" in="SourceGraphic" in2="effect1_dropShadow" result="shape"/>
</filter>
<linearGradient id="paint0_linear" x1="280.005" y1="197.887" x2="96.3958" y2="209.827" gradientUnits="userSpaceOnUse">
<stop stop-color="#A9FFEA"/>
<stop offset="1" stop-color="#00A47C"/>
</linearGradient>
<linearGradient id="paint1_linear" x1="151.934" y1="308.228" x2="125.119" y2="115.26" gradientUnits="userSpaceOnUse">
<stop stop-color="#00CC9B"/>
<stop offset="1" stop-color="#80FFE0"/>
</linearGradient>
<linearGradient id="paint2_linear" x1="224.71" y1="242.973" x2="356.161" y2="569.982" gradientUnits="userSpaceOnUse">
<stop stop-color="#00CC9B"/>
<stop offset="1" stop-color="#029672"/>
</linearGradient>
<linearGradient id="paint3_linear" x1="224.714" y1="242.972" x2="324.479" y2="556.842" gradientUnits="userSpaceOnUse">
<stop stop-color="#AAB8FF"/>
<stop offset="1" stop-color="#61A0FF"/>
</linearGradient>
<linearGradient id="paint4_linear" x1="238.915" y1="228.142" x2="338.681" y2="542.012" gradientUnits="userSpaceOnUse">
<stop stop-color="#E7FFF9"/>
<stop offset="1" stop-color="#02C093"/>
</linearGradient>
<linearGradient id="paint5_linear" x1="239.177" y1="426.418" x2="326.929" y2="442.066" gradientUnits="userSpaceOnUse">
<stop stop-color="#004333"/>
<stop offset="1" stop-color="#00CC9B"/>
</linearGradient>
<clipPath id="clip0">
<rect width="347.404" height="537.284" fill="white" transform="translate(0.835938 105.971) rotate(-17.6331)"/>
</clipPath>
</defs>
</svg>
