<svg width="47" height="46" viewBox="0 0 47 46" fill="none" xmlns="http://www.w3.org/2000/svg">
<g filter="url(#filter0_d)">
<path d="M7.39062 31.7623V12.0555C7.39062 4.21298 16.038 -0.713733 22.9957 3.20752C28.7606 6.52551 34.4261 9.74295 40.191 13.0609C47.0493 16.9822 47.0493 26.7351 40.191 30.6563C34.4261 33.9743 28.7606 37.2923 22.9957 40.5097C16.038 44.6321 7.39062 39.7054 7.39062 31.7623Z" fill="#00CC9B"/>
</g>
<path fill-rule="evenodd" clip-rule="evenodd" d="M23.4851 2.33357L23.4851 2.33361C26.3661 3.99178 29.2225 5.62494 32.0803 7.25891L32.0806 7.25906C34.9375 8.89251 37.7958 10.5268 40.6791 12.1863C48.2088 16.4925 48.209 27.2239 40.6798 31.5306C39.1463 32.4132 37.6183 33.2967 36.0926 34.1789C31.8953 36.6058 27.7153 39.0226 23.4846 41.384C15.8939 45.8706 6.39453 40.51 6.39453 31.7623V12.0555C6.39453 3.39413 15.9022 -1.94004 23.4773 2.32918L23.4851 2.33357ZM22.9935 40.5097C27.2209 38.1504 31.3949 35.737 35.5938 33.3092C37.1209 32.4262 38.6514 31.5412 40.1889 30.6563C47.0472 26.7351 47.0472 16.9822 40.1889 13.0609C37.3064 11.4019 34.4488 9.76805 31.5912 8.13419C28.7336 6.50034 25.876 4.86649 22.9935 3.20751C16.0359 -0.713751 7.38848 4.21296 7.38848 12.0555V31.7623C7.38848 39.7054 16.0359 44.6321 22.9935 40.5097Z" fill="white"/>
<g filter="url(#filter1_d)">
<path d="M39.1941 12.0551V31.8625C39.1941 39.705 30.5467 44.6317 23.5891 40.7104C17.8242 37.3925 12.1586 34.175 6.3937 30.857C-0.464568 26.9358 -0.464568 17.1829 6.3937 13.2616C12.1586 9.94365 17.8242 6.62566 23.5891 3.40822C30.4473 -0.71413 39.1941 4.11203 39.1941 12.0551Z" fill="#097FC9"/>
</g>
<path fill-rule="evenodd" clip-rule="evenodd" d="M23.0993 41.5844L23.0993 41.5843C20.2186 39.9263 17.3625 38.2933 14.505 36.6595L14.5041 36.659C11.6471 35.0255 8.78866 33.3912 5.9052 31.7316C-1.62459 27.4253 -1.62465 16.6935 5.90502 12.3871C7.43834 11.5046 8.96611 10.6212 10.4916 9.73919C14.6881 7.31276 18.8672 4.89635 23.0971 2.53546C30.5769 -1.94682 40.1898 3.29245 40.1898 12.0551V31.8625C40.1898 40.5238 30.6821 45.858 23.1071 41.5888L23.0993 41.5844ZM23.5908 3.40821C19.3634 5.76755 15.1895 8.18095 10.9906 10.6088C9.46344 11.4918 7.93299 12.3767 6.39547 13.2616C-0.462803 17.1829 -0.462803 26.9358 6.39547 30.857C9.27791 32.516 12.1355 34.1498 14.9931 35.7837C17.8507 37.4176 20.7084 39.0514 23.5908 40.7104C30.5485 44.6317 39.1959 39.705 39.1959 31.8625V12.0551C39.1959 4.11202 30.4491 -0.714139 23.5908 3.40821Z" fill="white"/>
<path d="M18.7205 25.9307C18.7205 25.9307 20.7084 28.1427 23.3921 28.1427C24.883 28.1427 26.1752 27.3383 26.1752 25.9307C26.1752 22.7133 17.1302 23.0149 17.1302 17.0827C17.1302 14.0664 19.8139 11.7538 23.4915 11.7538C25.7776 11.7538 29.157 12.7593 29.157 15.474V17.1833H25.9764V16.3789C25.9764 15.474 24.6843 14.9713 23.4915 14.9713C21.9012 14.9713 20.7084 15.7756 20.7084 16.9822C20.7084 20.1996 29.7534 19.5964 29.7534 25.7296C29.7534 28.746 27.3679 31.2596 23.3921 31.2596C19.1181 31.2596 16.832 28.3438 16.832 28.3438L18.7205 25.9307Z" fill="white"/>
<defs>
<filter id="filter0_d" x="4.42455" y="1.83112" width="40.9102" height="43.1341" filterUnits="userSpaceOnUse" color-interpolation-filters="sRGB">
<feFlood flood-opacity="0" result="BackgroundImageFix"/>
<feColorMatrix in="SourceAlpha" type="matrix" values="0 0 0 0 0 0 0 0 0 0 0 0 0 0 0 0 0 0 127 0"/>
<feOffset dx="-1.48304" dy="1.48304"/>
<feGaussianBlur stdDeviation="0.74152"/>
<feColorMatrix type="matrix" values="0 0 0 0 0 0 0 0 0 0 0 0 0 0 0 0 0 0 0.11 0"/>
<feBlend mode="normal" in2="BackgroundImageFix" result="effect1_dropShadow"/>
<feBlend mode="normal" in="SourceGraphic" in2="effect1_dropShadow" result="shape"/>
</filter>
<filter id="filter1_d" x="1.25" y="1.90317" width="40.9102" height="43.1498" filterUnits="userSpaceOnUse" color-interpolation-filters="sRGB">
<feFlood flood-opacity="0" result="BackgroundImageFix"/>
<feColorMatrix in="SourceAlpha" type="matrix" values="0 0 0 0 0 0 0 0 0 0 0 0 0 0 0 0 0 0 127 0"/>
<feOffset dx="1.48304" dy="1.48304"/>
<feGaussianBlur stdDeviation="0.74152"/>
<feColorMatrix type="matrix" values="0 0 0 0 0 0 0 0 0 0 0 0 0 0 0 0 0 0 0.11 0"/>
<feBlend mode="normal" in2="BackgroundImageFix" result="effect1_dropShadow"/>
<feBlend mode="normal" in="SourceGraphic" in2="effect1_dropShadow" result="shape"/>
</filter>
</defs>
</svg>
