<svg width="57" height="64" viewBox="0 0 57 64" fill="none" xmlns="http://www.w3.org/2000/svg">
<path fill-rule="evenodd" clip-rule="evenodd" d="M15.2069 0.583008H41.7002C51.4649 0.583008 56.902 6.20979 56.902 15.8512V48.5055C56.902 58.305 51.4649 63.8053 41.7002 63.8053H15.2069C5.59713 63.8053 0.00195312 58.305 0.00195312 48.5055V15.8512C0.00195312 6.20979 5.59713 0.583008 15.2069 0.583008ZM16.0654 15.3135V15.2819H25.514C26.8764 15.2819 27.9828 16.3883 27.9828 17.7444C27.9828 19.1385 26.8764 20.2449 25.514 20.2449H16.0654C14.703 20.2449 13.5998 19.1385 13.5998 17.7792C13.5998 16.4199 14.703 15.3135 16.0654 15.3135ZM16.0654 34.5333H40.8486C42.2079 34.5333 43.3142 33.4269 43.3142 32.0676C43.3142 30.7083 42.2079 29.5988 40.8486 29.5988H16.0654C14.703 29.5988 13.5998 30.7083 13.5998 32.0676C13.5998 33.4269 14.703 34.5333 16.0654 34.5333ZM16.0633 48.9791H40.8465C42.1078 48.8527 43.0593 47.7748 43.0593 46.5135C43.0593 45.2174 42.1078 44.1426 40.8465 44.0162H16.0633C15.115 43.9214 14.1983 44.3639 13.6925 45.1858C13.1867 45.9761 13.1867 47.0193 13.6925 47.8411C14.1983 48.6314 15.115 49.1056 16.0633 48.9791Z" fill="#097FC9"/>
</svg>
