<svg width="62" height="63" viewBox="0 0 62 63" fill="none" xmlns="http://www.w3.org/2000/svg">
<path d="M44.4047 62.2869H17.6076C7.12802 62.2869 0.0878906 54.937 0.0878906 43.9956V18.7417C0.0878906 7.80035 7.12802 0.447266 17.6076 0.447266H44.4078C54.8875 0.447266 61.9276 7.80035 61.9276 18.7417V43.9956C61.9276 54.937 54.8875 62.2869 44.4047 62.2869Z" fill="#097FC9"/>
<path fill-rule="evenodd" clip-rule="evenodd" d="M28.6699 21.0851C28.6699 25.3211 25.2223 28.7687 20.9863 28.7687C16.7472 28.7687 13.3027 25.3211 13.3027 21.0851C13.3027 16.8491 16.7472 13.3984 20.9863 13.3984C25.2223 13.3984 28.6699 16.8491 28.6699 21.0851ZM53.8892 37.8207C54.6096 38.5195 55.126 39.3173 55.4661 40.1675C56.4957 42.7401 55.9608 45.8321 54.8601 48.3799C53.5553 51.4131 51.0569 53.7043 47.9093 54.7061C46.5117 55.1544 45.0461 55.3461 43.5836 55.3461H17.6697C15.091 55.3461 12.8091 54.7463 10.9385 53.6208C9.76659 52.9158 9.55943 51.2925 10.4283 50.235C11.8815 48.4726 13.3162 46.704 14.7632 44.9199C17.5213 41.5064 19.3796 40.5169 21.445 41.3858C22.2829 41.7445 23.124 42.2856 23.9897 42.8545C26.2963 44.3819 29.5027 46.4783 33.7264 44.2026C36.6134 42.6239 38.2893 39.9225 39.748 37.5713L39.7774 37.5239C39.8755 37.3665 39.9729 37.2093 40.0699 37.0524C40.5659 36.251 41.0544 35.4616 41.6078 34.7349C42.2943 33.8352 44.8421 31.0215 48.135 33.0251C50.2345 34.2866 52 35.9934 53.8892 37.8207Z" fill="#D3EFFF"/>
</svg>
