<svg width="66" height="63" viewBox="0 0 66 63" fill="none" xmlns="http://www.w3.org/2000/svg">
<path d="M57.7547 33.7569H47.5492V28.6541H57.7547V33.7569ZM57.7547 36.6727H47.5492V41.7755H57.7547V36.6727ZM57.7547 12.617H47.5492V17.7197H57.7547V12.6171V12.617ZM57.7547 20.6355H47.5492V25.7382H57.7547V20.6355ZM57.7547 44.6913H47.5492V49.7941H57.7547V44.6912V44.6913ZM64.8037 54.751C64.5122 56.2673 62.6897 56.3037 61.4724 56.3548H38.8017V62.9154H34.2748L0.910156 57.0836V6.06364L34.4717 0.224609H38.8017V6.03444H60.6924C61.9245 6.08545 63.2803 5.99797 64.3518 6.73418C65.1027 7.81305 65.0298 9.18357 65.0809 10.4227L65.0517 48.3726C65.0153 50.4938 65.2484 52.659 64.8037 54.751ZM27.6411 43.3136C25.6293 39.2315 23.581 35.1783 21.5763 31.0961C23.559 27.1233 25.5127 23.1359 27.459 19.1484C25.8043 19.2287 24.1495 19.3307 22.5021 19.4474C21.2701 22.4433 19.834 25.3592 18.8718 28.4573C17.9752 25.5342 16.787 22.7203 15.7009 19.8701C14.0971 19.9576 12.4933 20.0524 10.8897 20.1471C12.5808 23.8795 14.3815 27.5606 16.0216 31.3148C14.0898 34.9596 12.282 38.6556 10.4085 42.3222C12.0049 42.3878 13.6014 42.4534 15.1978 42.4753C16.3351 39.574 17.7492 36.7821 18.7406 33.8225C19.63 37.0008 21.1388 39.9385 22.3781 42.9782C24.1349 43.1023 25.8845 43.2116 27.6413 43.3136H27.6411ZM61.6041 9.49652H38.8017V12.617H44.6335V17.7197H38.8017V20.6355H44.6335V25.7382H38.8017V28.6541H44.6335V33.7569H38.8017V36.6727H44.6335V41.7755H38.8017V44.6913H44.6335V49.7941H38.8017V53.1652H61.6041V9.49652Z" fill="#097FC9"/>
</svg>
