<svg width="34" height="34" viewBox="0 0 34 34" fill="none" xmlns="http://www.w3.org/2000/svg">
<path d="M33.6222 16.6255C33.6222 7.54505 26.2627 0.185547 17.1822 0.185547C8.10169 0.185547 0.742188 7.54505 0.742188 16.6255C0.742188 24.8327 6.75306 31.6335 14.6134 32.8665V21.3777H10.4392V16.6255H14.6134V13.0036C14.6134 8.88395 17.0666 6.60742 20.8234 6.60742C22.6215 6.60742 24.5031 6.92851 24.5031 6.92851V10.9743H22.4289C20.3867 10.9743 19.7509 12.2426 19.7509 13.543V16.6255H24.3104L23.5816 21.3777H19.7509V32.8665C27.6113 31.6335 33.6222 24.8327 33.6222 16.6255Z" fill="#1877F2"/>
<path d="M23.5799 21.3777L24.3087 16.6255H19.7492V13.543C19.7492 12.2426 20.385 10.9743 22.4272 10.9743H24.5014V6.92852C24.5014 6.92852 22.6198 6.60742 20.8217 6.60742C17.0649 6.60742 14.6118 8.88395 14.6118 13.0036V16.6255H10.4375V21.3777H14.6118V32.8665C15.4498 32.9981 16.3071 33.0655 17.1805 33.0655C18.0539 33.0655 18.9112 32.9981 19.7492 32.8665V21.3777H23.5799Z" fill="white"/>
</svg>
