<svg width="34" height="34" viewBox="0 0 34 34" fill="none" xmlns="http://www.w3.org/2000/svg">
<path d="M0.710938 16.6255C0.710938 7.54598 8.07137 0.185547 17.1509 0.185547C26.2305 0.185547 33.5909 7.54598 33.5909 16.6255C33.5909 25.7051 26.2305 33.0655 17.1509 33.0655C8.07137 33.0655 0.710938 25.7051 0.710938 16.6255Z" fill="url(#paint0_radial)"/>
<mask id="mask0" mask-type="alpha" maskUnits="userSpaceOnUse" x="0" y="0" width="34" height="34">
<path fill-rule="evenodd" clip-rule="evenodd" d="M0.710938 16.6255C0.710938 7.54598 8.07137 0.185547 17.1509 0.185547C26.2305 0.185547 33.5909 7.54598 33.5909 16.6255C33.5909 25.7051 26.2305 33.0655 17.1509 33.0655C8.07137 33.0655 0.710938 25.7051 0.710938 16.6255Z" fill="white"/>
</mask>
<g mask="url(#mask0)">
<path fill-rule="evenodd" clip-rule="evenodd" d="M17.1516 7.85742C14.7704 7.85742 14.4715 7.86783 13.5363 7.9104C12.6028 7.95314 11.9657 8.10092 11.4082 8.31775C10.8315 8.5417 10.3423 8.84127 9.85494 9.32882C9.36721 9.81618 9.06764 10.3054 8.84295 10.8819C8.62558 11.4396 8.47762 12.0769 8.4356 13.01C8.39377 13.9452 8.38281 14.2442 8.38281 16.6255C8.38281 19.0068 8.39341 19.3047 8.43579 20.24C8.47871 21.1734 8.62649 21.8106 8.84314 22.3681C9.06727 22.9447 9.36685 23.4339 9.85439 23.9213C10.3416 24.409 10.8308 24.7093 11.4071 24.9333C11.9649 25.1501 12.6023 25.2979 13.5355 25.3406C14.4708 25.3832 14.7695 25.3936 17.1505 25.3936C19.532 25.3936 19.8299 25.3832 20.7652 25.3406C21.6986 25.2979 22.3365 25.1501 22.8944 24.9333C23.4709 24.7093 23.9593 24.409 24.4465 23.9213C24.9342 23.4339 25.2338 22.9447 25.4585 22.3682C25.674 21.8106 25.822 21.1732 25.8658 20.2402C25.9078 19.3049 25.9188 19.0068 25.9188 16.6255C25.9188 14.2442 25.9078 13.9454 25.8658 13.0101C25.822 12.0767 25.674 11.4396 25.4585 10.882C25.2338 10.3054 24.9342 9.81618 24.4465 9.32882C23.9588 8.84109 23.4711 8.54152 22.8938 8.31775C22.3349 8.10092 21.6973 7.95314 20.7639 7.9104C19.8286 7.86783 19.5309 7.85742 17.1489 7.85742H17.1516ZM16.3659 9.43724C16.5186 9.437 16.6829 9.43708 16.8602 9.43716L17.1525 9.43724C19.4935 9.43724 19.771 9.44565 20.6955 9.48766C21.5504 9.52675 22.0144 9.6696 22.3234 9.78961C22.7326 9.94853 23.0243 10.1385 23.331 10.4454C23.6379 10.7523 23.8279 11.0445 23.9872 11.4537C24.1072 11.7624 24.2502 12.2264 24.2891 13.0813C24.3312 14.0056 24.3403 14.2833 24.3403 16.6232C24.3403 18.9632 24.3312 19.2409 24.2891 20.1652C24.25 21.0201 24.1072 21.484 23.9872 21.7928C23.8283 22.2019 23.6379 22.4933 23.331 22.8C23.0242 23.1069 22.7328 23.2969 22.3234 23.4558C22.0147 23.5763 21.5504 23.7188 20.6955 23.7579C19.7712 23.7999 19.4935 23.8091 17.1525 23.8091C14.8112 23.8091 14.5337 23.7999 13.6094 23.7579C12.7545 23.7184 12.2906 23.5756 11.9813 23.4556C11.5721 23.2967 11.2799 23.1067 10.973 22.7998C10.6661 22.4929 10.4761 22.2014 10.3168 21.792C10.1968 21.4833 10.0538 21.0193 10.0149 20.1645C9.97286 19.2401 9.96446 18.9625 9.96446 16.621C9.96446 14.2796 9.97286 14.0034 10.0149 13.0791C10.054 12.2242 10.1968 11.7602 10.3168 11.4512C10.4757 11.042 10.6661 10.7497 10.973 10.4428C11.2799 10.1359 11.5721 9.94597 11.9813 9.78669C12.2904 9.66613 12.7545 9.52365 13.6094 9.48437C14.4183 9.44784 14.7317 9.43688 16.3659 9.43505V9.43724ZM20.7793 11.9452C20.7793 11.3641 21.2506 10.8934 21.8315 10.8934V10.893C22.4123 10.893 22.8836 11.3643 22.8836 11.9452C22.8836 12.5261 22.4123 12.9974 21.8315 12.9974C21.2506 12.9974 20.7793 12.5261 20.7793 11.9452ZM17.1502 12.1232C14.6636 12.1233 12.6476 14.1394 12.6476 16.626C12.6476 19.1127 14.6637 21.1279 17.1504 21.1279C19.637 21.1279 21.6524 19.1127 21.6524 16.626C21.6524 14.1393 19.6369 12.1232 17.1502 12.1232ZM20.0744 16.6263C20.0744 15.012 18.7657 13.7036 17.1517 13.7036C15.5374 13.7036 14.229 15.012 14.229 16.6263C14.229 18.2403 15.5374 19.549 17.1517 19.549C18.7657 19.549 20.0744 18.2403 20.0744 16.6263Z" fill="white"/>
</g>
<defs>
<radialGradient id="paint0_radial" cx="0" cy="0" r="1" gradientUnits="userSpaceOnUse" gradientTransform="translate(8.15273 34.2583) rotate(-53.8683) scale(36.7517)">
<stop stop-color="white"/>
<stop offset="0.284704" stop-color="#FF7A00"/>
<stop offset="1" stop-color="#FF00D6"/>
</radialGradient>
</defs>
</svg>
