<svg width="34" height="34" viewBox="0 0 34 34" fill="none" xmlns="http://www.w3.org/2000/svg">
<path d="M0.226562 16.6255C0.226562 7.54598 7.587 0.185547 16.6666 0.185547C25.7461 0.185547 33.1066 7.54598 33.1066 16.6255C33.1066 25.7051 25.7461 33.0655 16.6666 33.0655C7.587 33.0655 0.226562 25.7051 0.226562 16.6255Z" fill="#0077B5"/>
<path fill-rule="evenodd" clip-rule="evenodd" d="M12.0898 10.3388C12.0898 11.4137 11.2807 12.2737 9.98165 12.2737H9.95784C8.70705 12.2737 7.89844 11.4137 7.89844 10.3388C7.89844 9.24125 8.73168 8.40527 10.0062 8.40527C11.2807 8.40527 12.0656 9.24125 12.0898 10.3388ZM11.8451 13.8019V24.996H8.11945V13.8019H11.8451ZM25.2809 24.996L25.2811 18.5776C25.2811 15.1393 23.4431 13.539 20.9915 13.539C19.0134 13.539 18.1278 14.6255 17.6333 15.3877V13.8022H13.9072C13.9563 14.8526 13.9072 24.9963 13.9072 24.9963H17.6333V18.7446C17.6333 18.41 17.6574 18.0763 17.756 17.8367C18.0252 17.1684 18.6383 16.4764 19.6676 16.4764C21.0163 16.4764 21.5554 17.5029 21.5554 19.0071V24.996H25.2809Z" fill="white"/>
</svg>
