<svg width="34" height="34" viewBox="0 0 34 34" fill="none" xmlns="http://www.w3.org/2000/svg">
<path d="M0.195312 16.6255C0.195312 7.54598 7.55575 0.185547 16.6353 0.185547C25.7149 0.185547 33.0753 7.54598 33.0753 16.6255C33.0753 25.7051 25.7149 33.0655 16.6353 33.0655C7.55575 33.0655 0.195312 25.7051 0.195312 16.6255Z" fill="#55ACEE"/>
<path d="M16.1417 13.5475L16.1762 14.1163L15.6012 14.0467C13.5083 13.7797 11.6799 12.8741 10.1275 11.3533L9.36852 10.5987L9.17303 11.1559C8.75905 12.3981 9.02353 13.71 9.88599 14.5923C10.346 15.0799 10.2425 15.1496 9.44901 14.8593C9.17303 14.7665 8.93154 14.6968 8.90854 14.7316C8.82804 14.8129 9.10403 15.8693 9.32252 16.2873C9.6215 16.8678 10.231 17.4366 10.8979 17.7733L11.4614 18.0403L10.7944 18.0519C10.1505 18.0519 10.1275 18.0635 10.1965 18.3073C10.4265 19.0619 11.3349 19.863 12.3469 20.2113L13.0598 20.4551L12.4389 20.8266C11.5189 21.3606 10.438 21.6624 9.35702 21.6857C8.83954 21.6973 8.41406 21.7437 8.41406 21.7785C8.41406 21.8946 9.81699 22.5448 10.6335 22.8002C13.0828 23.5548 15.9922 23.2297 18.1771 21.9411C19.7295 21.0239 21.2819 19.2012 22.0064 17.4366C22.3974 16.4963 22.7884 14.7781 22.7884 13.9538C22.7884 13.4198 22.8229 13.3501 23.4668 12.7116C23.8463 12.3401 24.2028 11.9338 24.2718 11.8177C24.3868 11.5971 24.3753 11.5971 23.7888 11.7944C22.8114 12.1427 22.6734 12.0963 23.1563 11.5739C23.5128 11.2024 23.9383 10.529 23.9383 10.3317C23.9383 10.2968 23.7658 10.3549 23.5703 10.4594C23.3633 10.5755 22.9034 10.7496 22.5584 10.8541L21.9374 11.0514L21.3739 10.6683C21.0634 10.4594 20.6265 10.2272 20.3965 10.1575C19.81 9.99499 18.913 10.0182 18.3841 10.204C16.9466 10.7264 16.0382 12.0731 16.1417 13.5475Z" fill="white"/>
</svg>
