<svg width="1440" height="900" viewBox="0 0 1440 900" fill="none" xmlns="http://www.w3.org/2000/svg">
<mask id="mask0" mask-type="alpha" maskUnits="userSpaceOnUse" x="-163" y="-20" width="1883" height="970">
<rect x="-162.718" y="-19.8533" width="1882.11" height="969.317" fill="#C4C4C4"/>
</mask>
<g mask="url(#mask0)">
<path d="M1734.23 730.517L283.479 298.414L1220.72 962.583H1734.23V730.517Z" fill="#3C8AC8"/>
<path d="M309.134 304.61C415.538 197.018 639.681 -26.6472 649.667 -33.7803H-174.215V262.247L309.134 304.61Z" fill="#3579BA"/>
<path d="M1258.42 978.754L290.699 300.356L241.449 978.754H1258.42Z" fill="#306AA9"/>
<path d="M-182.701 733.32L293.89 298.414L254.983 965.035H-182.701V733.32Z" fill="#285284"/>
<path d="M296.372 299.647L-191.283 247.005V743.333L296.372 299.647Z" fill="#2A5D9C"/>
<path d="M1747.88 608.539L1003.95 -61.3253H656.676L291.409 301.774L1747.88 735.27V608.539Z" fill="#3A82BC"/>
<path d="M1754.46 274.762L1614.57 -62.6392H995.723L1754.46 625.33V274.762Z" fill="#3F8FCE"/>
</g>
</svg>
