<svg width="230" height="252" viewBox="0 0 230 252" fill="none" xmlns="http://www.w3.org/2000/svg">
<g clip-path="url(#clip0)">
<path d="M0 88.7548C0 86.8617 1.33656 84.6345 2.89588 83.7437L145.685 1.33904C147.245 0.448183 149.918 0.448183 151.477 1.33904L154.707 3.23212C156.266 4.12298 157.603 6.35014 157.603 8.24322V121.717C157.603 123.498 156.266 125.837 154.707 126.728L11.9177 209.132C10.3584 210.023 7.68523 210.023 6.12591 209.132L2.89588 207.239C1.33656 206.348 0 204.01 0 202.228V88.7548Z" fill="#097FC9"/>
<g opacity="0.7">
<g opacity="0.7">
<path opacity="0.7" d="M0 88.7548C0 86.8617 1.33656 84.6345 2.89588 83.7437L145.685 1.33904C147.245 0.448183 149.918 0.448183 151.477 1.33904L154.707 3.23212C156.266 4.12298 157.603 6.35014 157.603 8.24322V121.717C157.603 123.498 156.266 125.837 154.707 126.728L11.9177 209.132C10.3584 210.023 7.68523 210.023 6.12591 209.132L2.89588 207.239C1.33656 206.348 0 204.01 0 202.228V88.7548Z" fill="white"/>
</g>
</g>
<path d="M0.891113 85.9708L9.13324 90.7592L156.712 5.45928C156.155 4.56841 155.487 3.78891 154.707 3.34348L151.477 1.33904C149.918 0.448183 147.245 0.448183 145.685 1.33904L2.89596 83.7437C2.11629 84.1891 1.33663 84.9686 0.891113 85.9708Z" fill="#097FC9"/>
<path opacity="0.8" d="M0.891113 85.9708L9.13324 90.7592L156.712 5.45928C156.155 4.56841 155.487 3.78891 154.707 3.34348L151.477 1.33904C149.918 0.448183 147.245 0.448183 145.685 1.33904L2.89596 83.7437C2.11629 84.1891 1.33663 84.9686 0.891113 85.9708Z" fill="white"/>
<path opacity="0.1" d="M0 88.7547V202.228C0 204.121 1.33656 206.348 2.89588 207.239L6.12591 209.132C6.34867 209.244 6.68281 209.355 6.90557 209.466C7.23971 209.578 7.68523 209.689 8.13075 209.689C8.91041 209.8 9.69007 209.8 10.4697 209.578C10.6925 209.578 10.8039 209.466 11.0266 209.466C11.138 209.466 11.2494 209.355 11.3608 209.355C10.8039 209.578 10.3584 209.466 9.91283 209.355C9.35593 209.021 9.02179 208.464 9.02179 207.462V93.9886C9.02179 92.7636 9.57869 91.8728 10.5811 91.5387L9.02179 90.6478L0.779661 85.8595C0.33414 86.8617 0 87.8639 0 88.7547Z" fill="#097FC9"/>
<path opacity="0.05" d="M0 88.7547V202.228C0 204.121 1.33656 206.348 2.89588 207.239L6.12591 209.132C6.34867 209.244 6.68281 209.355 6.90557 209.466C7.23971 209.578 7.68523 209.689 8.13075 209.689C8.91041 209.8 9.69007 209.8 10.4697 209.578C10.6925 209.578 10.8039 209.466 11.0266 209.466C11.138 209.466 11.2494 209.355 11.3608 209.355C10.8039 209.578 10.3584 209.466 9.91283 209.355C9.35593 209.021 9.02179 208.464 9.02179 207.462V93.9886C9.02179 92.7636 9.57869 91.8728 10.5811 91.5387L9.02179 90.6478L0.779661 85.8595C0.33414 86.8617 0 87.8639 0 88.7547Z" fill="black"/>
<path opacity="0.2" d="M9.02197 90.6478L77.6321 116.26C82.5329 118.042 87.9905 116.26 90.8864 111.917L101.913 95.1021L156.823 5.45927L104.029 95.6589L157.603 121.717C157.603 122.607 157.269 123.721 156.712 124.612L103.918 95.993L91.1091 116.483C88.2133 121.16 82.1987 123.053 77.1866 120.714L68.0535 116.706L9.91301 209.355C9.35611 209.021 9.02197 208.464 9.02197 207.462V205.569L67.7193 116.594L9.02197 90.6478Z" fill="#097FC9"/>
<path opacity="0.05" d="M9.02197 90.6478L77.6321 116.26C82.5329 118.042 87.9905 116.26 90.8864 111.917L101.913 95.1021L156.823 5.45927L104.029 95.6589L157.603 121.717C157.603 122.607 157.269 123.721 156.712 124.612L103.918 95.993L91.1091 116.483C88.2133 121.16 82.1987 123.053 77.1866 120.714L68.0535 116.706L9.91301 209.355C9.35611 209.021 9.02197 208.464 9.02197 207.462V205.569L67.7193 116.594L9.02197 90.6478Z" fill="black"/>
<path d="M36.1987 109.69C36.1987 107.797 37.5353 105.57 39.0946 104.679L181.884 22.2743C183.443 21.3834 186.116 21.3834 187.676 22.2743L190.906 24.1674C192.465 25.0582 193.802 27.2854 193.802 29.1784V142.652C193.802 144.434 192.465 146.772 190.906 147.663L48.1164 230.068C46.5571 230.958 43.884 230.958 42.3246 230.068L39.0946 228.174C37.5353 227.284 36.1987 224.945 36.1987 223.163V109.69Z" fill="#097FC9"/>
<g opacity="0.5">
<g opacity="0.5">
<path opacity="0.5" d="M36.1987 109.69C36.1987 107.797 37.5353 105.57 39.0946 104.679L181.884 22.2743C183.443 21.3834 186.116 21.3834 187.676 22.2743L190.906 24.1674C192.465 25.0582 193.802 27.2854 193.802 29.1784V142.652C193.802 144.434 192.465 146.772 190.906 147.663L48.1164 230.068C46.5571 230.958 43.884 230.958 42.3246 230.068L39.0946 228.174C37.5353 227.284 36.1987 224.945 36.1987 223.163V109.69Z" fill="white"/>
</g>
</g>
<path d="M37.0898 106.795L45.332 111.583L192.911 26.2831C192.354 25.3923 191.685 24.6128 190.906 24.1674L187.676 22.2743C186.116 21.3834 183.443 21.3834 181.884 22.2743L39.0947 104.679C38.315 105.124 37.5354 105.904 37.0898 106.795Z" fill="#097FC9"/>
<path opacity="0.6" d="M37.0898 106.795L45.332 111.583L192.911 26.2831C192.354 25.3923 191.685 24.6128 190.906 24.1674L187.676 22.2743C186.116 21.3834 183.443 21.3834 181.884 22.2743L39.0947 104.679C38.315 105.124 37.5354 105.904 37.0898 106.795Z" fill="white"/>
<path opacity="0.1" d="M36.1987 109.69V223.163C36.1987 225.056 37.5353 227.284 39.0946 228.174L42.3246 230.068C42.5474 230.179 42.8815 230.29 43.1043 230.402C43.4384 230.513 43.884 230.624 44.3295 230.624C45.1091 230.736 45.8888 230.736 46.6685 230.513C46.8912 230.513 47.0026 230.402 47.2254 230.402C47.3367 230.402 47.4481 230.29 47.5595 230.29C47.0026 230.513 46.5571 230.402 46.2229 230.29C45.666 229.956 45.3319 229.399 45.3319 228.397V114.924C45.3319 113.699 45.8888 112.808 46.8912 112.474L45.3319 111.583L37.0898 106.795C36.5329 107.797 36.1987 108.799 36.1987 109.69Z" fill="black"/>
<path opacity="0.4" d="M45.2207 111.583L113.831 137.195C118.732 138.977 124.189 137.195 127.085 132.852L138.112 116.037L192.911 26.2831L140.228 116.594L193.802 142.652C193.802 143.543 193.468 144.656 192.911 145.547L140.117 116.817L127.308 137.307C124.412 141.984 118.397 143.877 113.385 141.538L104.252 137.529L46.2231 230.179C45.6662 229.845 45.3321 229.288 45.3321 228.286V226.393L104.029 137.418L45.2207 111.583Z" fill="#097FC9"/>
<path opacity="0.05" d="M45.2207 111.583L113.831 137.195C118.732 138.977 124.189 137.195 127.085 132.852L138.112 116.037L192.911 26.2831L140.228 116.594L193.802 142.652C193.802 143.543 193.468 144.656 192.911 145.547L140.117 116.817L127.308 137.307C124.412 141.984 118.397 143.877 113.385 141.538L104.252 137.529L46.2231 230.179C45.6662 229.845 45.3321 229.288 45.3321 228.286V226.393L104.029 137.418L45.2207 111.583Z" fill="black"/>
<path d="M72.7314 131.516L221.313 45.7707L227.216 49.2228C228.775 50.1137 230 52.3408 230 54.0112V163.587C230 165.369 228.775 167.485 227.216 168.375L84.2036 251.003C82.6443 251.894 80.1939 251.894 78.6346 251.003L75.5159 249.221C73.9566 248.33 72.7314 246.103 72.7314 244.433V131.516Z" fill="#097FC9"/>
<path opacity="0.2" d="M72.7314 131.516L221.313 45.7707L227.216 49.2228C228.775 50.1137 230 52.3408 230 54.0112V163.587C230 165.369 228.775 167.485 227.216 168.375L84.2036 251.003C82.6443 251.894 80.1939 251.894 78.6346 251.003L75.5159 249.221C73.9566 248.33 72.7314 246.103 72.7314 244.433V131.516Z" fill="black"/>
<path d="M220.421 36.0826L220.978 35.7485L218.639 34.4122C218.417 34.3009 218.194 34.1895 217.971 34.0782L152.702 9.91358C150.92 9.24543 148.693 10.0249 147.69 11.4726L74.6249 118.376C73.6225 119.935 72.7314 122.607 72.7314 124.501C72.7314 127.507 72.7314 131.627 72.7314 131.627L74.959 132.964L221.201 45.8821V38.7552C221.201 37.753 220.978 36.8621 220.421 36.0826Z" fill="#097FC9"/>
<path opacity="0.1" d="M150.697 12.0294C150.363 12.2521 150.14 12.5862 149.918 12.8089L76.8522 119.601C76.2953 120.38 75.8498 121.494 75.5157 122.607L73.2881 121.271C73.3995 120.714 73.6222 120.158 73.845 119.712C73.9564 119.489 74.0677 119.267 74.1791 119.044C74.1791 119.044 74.1791 118.933 74.2905 118.933C74.4019 118.71 74.5133 118.487 74.6246 118.265L147.801 11.4726C147.913 11.3612 148.024 11.1385 148.136 11.0272C148.247 10.9158 148.358 10.8044 148.581 10.6931L150.697 12.0294Z" fill="black"/>
<path opacity="0.35" d="M220.978 35.7485C220.755 35.6372 220.533 35.5258 220.31 35.4145L155.041 11.2499C153.705 10.6931 151.922 11.1385 150.809 12.0294L148.581 10.6931C149.806 9.69086 151.477 9.35679 152.814 9.91358L218.194 34.1895C218.416 34.3009 218.639 34.4122 218.862 34.5236L220.978 35.7485Z" fill="white"/>
<path d="M74.1792 118.933C74.2906 118.71 74.402 118.487 74.6247 118.265C74.402 118.487 74.2906 118.71 74.1792 118.933Z" fill="#097FC9"/>
<path d="M148.136 11.1385C148.247 11.0272 148.358 10.9158 148.581 10.8044C148.358 10.8044 148.247 10.9158 148.136 11.1385Z" fill="#097FC9"/>
<path d="M73.1768 121.383C73.3995 120.826 73.5109 120.269 73.7337 119.712C73.6223 120.269 73.3995 120.826 73.1768 121.383Z" fill="#097FC9"/>
<path d="M73.8452 119.712C73.9566 119.489 74.068 119.267 74.1794 119.044C74.068 119.267 73.9566 119.489 73.8452 119.712Z" fill="#097FC9"/>
<path opacity="0.2" d="M147.69 11.5839C147.801 11.4726 147.913 11.2499 148.024 11.1385C147.913 11.2499 147.801 11.3612 147.69 11.5839Z" fill="black"/>
<path d="M150.029 12.8089L76.8524 119.601C75.85 121.16 74.959 123.832 74.959 125.725C74.959 128.732 74.959 132.852 74.959 132.852L223.54 47.107V39.9801C223.54 38.087 222.092 36.0826 220.421 35.5258L155.041 11.2499C153.259 10.5817 151.032 11.3612 150.029 12.8089Z" fill="#097FC9"/>
<path opacity="0.05" d="M223.54 39.9801C223.54 39.0893 223.206 38.1984 222.76 37.5303L75.5159 122.719C75.1817 123.721 74.959 124.835 74.959 125.725C74.959 128.732 74.959 132.852 74.959 132.852L223.54 47.107V39.9801Z" fill="black"/>
<path d="M217.191 9.91358C217.191 9.13408 216.968 8.57729 216.523 8.35457C216.077 8.13186 212.402 6.01606 211.956 5.68199C211.511 5.45927 210.954 5.45927 210.286 5.9047L88.4357 76.1713C87.0992 76.9508 85.9854 78.8439 85.9854 80.4029V226.281C85.9854 227.061 86.2081 227.618 86.6536 227.84C87.0992 228.063 90.7747 230.179 91.2202 230.402C91.6657 230.624 92.2226 230.624 92.8909 230.179L214.741 159.912C216.077 159.133 217.191 157.24 217.191 155.792V9.91358Z" fill="#F0F0F0"/>
<path d="M92.8908 230.29L214.741 159.912C216.077 159.133 217.191 157.24 217.191 155.681V9.80222C217.191 8.24321 216.077 7.68643 214.741 8.35457L92.8908 78.8439C91.5542 79.6234 90.4404 81.5165 90.4404 83.0755V228.954C90.5518 230.402 91.5542 231.07 92.8908 230.29Z" fill="#FAFAFA"/>
<path d="M170.968 92.2068C170.857 93.9886 170.523 95.5476 170.077 97.1066C169.632 98.6656 168.964 100.002 168.295 101.227C167.627 102.452 166.847 103.454 165.956 104.345C165.065 105.236 164.286 105.904 163.395 106.349C161.835 107.129 160.722 107.463 159.83 107.24C159.051 107.017 158.383 106.683 158.048 106.127C157.826 106.683 157.491 107.24 157.269 107.908C156.935 108.465 156.6 109.022 156.155 109.69C155.709 110.247 155.153 110.804 154.484 111.36C153.816 111.917 153.036 112.474 152.034 112.919C150.92 113.476 149.918 113.699 149.027 113.476C148.136 113.253 147.356 112.808 146.799 111.917C146.242 111.026 145.797 109.913 145.462 108.354C145.128 106.906 145.128 105.124 145.128 103.009C145.24 101.004 145.462 98.9996 145.908 97.2179C146.353 95.3248 146.799 93.6545 147.467 92.2068C148.136 90.6478 148.915 89.3115 149.806 88.198C150.697 87.0844 151.811 86.1935 152.925 85.6367C154.15 84.9686 155.041 84.7459 155.709 85.08C156.266 85.3027 156.823 85.7481 157.157 86.4162V85.8595C157.157 85.414 157.269 84.8572 157.603 84.4118C157.826 83.9664 158.16 83.6323 158.494 83.4096L160.833 82.1846C161.167 81.9619 161.501 82.0733 161.724 82.296C161.947 82.5187 162.058 82.8528 162.058 83.4096L161.501 97.6634C161.501 98.7769 161.613 99.4451 162.058 99.7792C162.504 100.113 163.06 100.113 163.617 99.7792C164.174 99.4451 164.731 98.8883 165.288 98.1088C165.734 97.3293 166.068 96.1044 166.179 94.6567C166.291 93.4318 166.402 92.0955 166.402 90.8705C166.402 89.5343 166.513 88.3093 166.402 87.1957C166.291 84.8572 166.068 82.8528 165.511 81.2938C164.954 79.7348 164.286 78.6212 163.283 77.8417C162.281 77.1736 161.056 76.8395 159.496 77.0622C157.937 77.1736 156.155 77.8417 154.039 78.9553C152.257 79.8461 150.697 81.0711 149.249 82.5187C147.801 83.9664 146.576 85.6367 145.462 87.4185C144.349 89.2002 143.569 91.2046 142.901 93.3204C142.232 95.4362 141.787 97.6634 141.453 99.8905C141.341 100.447 141.341 101.338 141.23 102.229C141.23 103.231 141.119 104.233 141.119 105.236C141.119 106.238 141.007 107.24 141.007 108.242C141.007 109.245 141.007 110.024 141.007 110.581C141.119 112.585 141.453 114.367 142.01 115.815C142.567 117.262 143.346 118.376 144.237 119.267C145.24 120.046 146.353 120.492 147.69 120.492C149.027 120.492 150.586 120.046 152.368 119.155C153.593 118.487 154.707 117.819 155.598 117.262C156.489 116.594 157.38 115.926 158.048 115.258C158.717 114.59 159.385 113.922 159.83 113.365C160.387 112.697 160.833 112.14 161.167 111.472C161.501 110.915 161.835 110.581 161.947 110.247C162.169 110.024 162.392 109.801 162.726 109.579L166.068 107.797C166.402 107.574 166.736 107.686 166.959 107.797C167.182 108.02 167.293 108.354 167.293 109.022C167.293 109.356 167.182 109.801 166.959 110.135C166.291 111.36 165.511 112.697 164.62 114.144C163.729 115.592 162.726 116.928 161.613 118.265C160.499 119.601 159.051 120.937 157.491 122.162C155.932 123.498 154.039 124.612 151.922 125.725C149.249 127.062 146.91 127.73 145.017 127.619C143.012 127.507 141.453 126.839 140.116 125.614C138.78 124.389 137.777 122.719 137.109 120.492C136.441 118.376 135.995 115.926 135.995 113.142C135.995 112.585 135.995 111.694 135.995 110.692C135.995 109.69 136.106 108.576 136.106 107.463C136.106 106.349 136.218 105.236 136.218 104.233C136.218 103.231 136.329 102.34 136.329 101.784C136.552 98.8883 137.109 95.993 138 93.0977C138.891 90.091 140.116 87.3071 141.564 84.6345C143.012 81.9619 144.794 79.5121 146.91 77.2849C149.027 75.0578 151.366 73.276 154.039 71.9398C157.157 70.3807 159.719 69.6012 161.947 69.6012C164.063 69.6012 165.734 70.158 167.07 71.383C168.407 72.6079 169.298 74.2783 169.966 76.5054C170.523 78.7326 170.857 81.2938 170.968 84.0777C170.968 85.1913 170.968 86.5276 170.857 88.0866C171.191 89.6456 171.08 90.9819 170.968 92.2068ZM150.14 100.336C150.029 102.563 150.252 104.122 150.809 105.013C151.366 105.904 152.145 106.127 153.259 105.57C154.373 105.013 155.264 104.011 155.821 102.452C156.378 101.004 156.823 99.111 156.823 96.8839C156.935 94.6567 156.712 93.0977 156.155 92.2068C155.598 91.316 154.818 91.0933 153.705 91.65C152.591 92.2068 151.811 93.2091 151.143 94.7681C150.586 96.3271 150.14 98.2201 150.14 100.336Z" fill="#097FC9"/>
<path d="M90.4406 228.954C90.4406 229.622 90.6633 230.179 90.9975 230.402C90.2178 229.956 86.9878 228.063 86.6536 227.84C86.2081 227.618 85.9854 227.061 85.9854 226.281V80.4029C85.9854 79.6234 86.2081 78.8439 86.6536 78.0644L91.2202 80.6257C90.7747 81.4052 90.5519 82.296 90.5519 82.9642V228.954H90.4406Z" fill="#E0E0E0"/>
<path d="M226.213 165.035C226.213 165.146 226.102 165.146 226.102 165.257L164.174 145.658C159.274 143.543 153.593 145.213 150.809 149.779L84.649 248.107L82.1986 249.555C81.419 250.001 80.7507 250.001 80.3052 249.778L148.358 148.442C151.143 143.877 156.935 142.206 161.724 144.322L226.213 165.035Z" fill="#097FC9"/>
<path opacity="0.4" d="M144.683 159.467L144.794 159.355L84.649 248.107L82.1986 249.555C81.419 250.001 80.7507 250.001 80.3052 249.778L142.344 158.019L144.683 159.467Z" fill="white"/>
<path opacity="0.4" d="M226.213 165.035C226.213 165.146 226.102 165.146 226.102 165.257L164.174 145.658C159.274 143.543 153.593 145.213 150.809 149.779L148.358 148.331C151.143 143.877 156.823 142.095 161.724 144.211L226.213 165.035Z" fill="white"/>
<path d="M229.889 53.343C229.778 52.5635 229.332 52.3408 228.775 52.6749C228.552 52.7862 228.33 53.1203 228.107 53.4544L227.773 53.8998L166.736 146.772L157.603 159.467C156.601 160.914 154.373 161.805 152.591 161.36L144.683 159.467L84.5379 137.307C84.0924 137.195 83.6469 137.195 83.3127 137.307C83.2013 137.307 82.9786 137.418 82.8672 137.418L85.0948 136.082L142.678 157.24L150.252 159.912C152.034 160.358 154.262 159.467 155.264 158.019L164.397 145.324L225.768 52.0067C225.991 51.6727 226.213 51.5613 226.436 51.3386L221.09 48.2206L223.318 46.8843L226.993 49.0001C228.552 50.0023 229.666 51.6727 229.889 53.343Z" fill="#097FC9"/>
<path opacity="0.4" d="M166.736 146.661L157.603 159.355C156.601 160.803 154.373 161.694 152.591 161.249L144.683 159.355L144.794 159.244L145.129 158.687L150.252 159.912C152.034 160.358 154.262 159.467 155.264 158.019L164.286 145.436L166.736 146.661Z" fill="white"/>
<path opacity="0.1" d="M227.216 49.2228L223.54 47.107L221.313 48.3319L226.659 51.45C226.436 51.6727 226.102 51.784 225.991 52.1181L164.62 145.436L164.509 145.547L166.736 146.772L227.884 53.8998L228.218 53.4544C228.441 53.1203 228.664 52.8976 228.887 52.6749C229.443 52.3408 229.889 52.5635 230 53.343C229.666 51.6727 228.552 50.0023 227.216 49.2228Z" fill="black"/>
<path d="M85.763 139.088L72.6201 131.516V244.321C72.6201 246.103 73.8453 248.219 75.4046 249.11L78.5233 250.891C80.0826 251.782 82.533 251.782 84.0923 250.891L85.763 250.112V139.088Z" fill="#097FC9"/>
<path opacity="0.15" d="M85.763 139.088L72.6201 131.516V244.321C72.6201 246.103 73.8453 248.219 75.4046 249.11L78.5233 250.891C80.0826 251.782 82.533 251.782 84.0923 250.891L85.763 250.112V139.088Z" fill="black"/>
<path d="M230 54.0112V163.587C230 164.478 229.666 165.48 229.109 166.371C228.664 167.151 228.107 167.819 227.438 168.264H227.327C227.216 168.264 227.216 168.375 227.104 168.375L84.2034 251.003C83.4238 251.448 82.7555 251.448 82.31 251.225C81.8645 251.003 81.5303 250.557 81.4189 249.889C81.4189 249.778 81.4189 249.555 81.4189 249.444V139.868C81.4189 138.086 82.8669 136.973 84.5376 137.418L144.683 159.578L152.591 161.471C154.373 161.917 156.601 161.026 157.603 159.578L166.736 146.883L227.772 54.0112L228.107 53.5658C229.109 52.0067 230 52.2295 230 54.0112Z" fill="#097FC9"/>
<path d="M227.216 168.487C227.327 168.487 227.327 168.375 227.438 168.375L227.55 168.264C228.218 167.819 228.775 167.15 229.221 166.482C229.777 165.591 230.112 164.589 230.112 163.698L166.848 146.772L209.172 178.954L227.216 168.487Z" fill="#097FC9"/>
<path opacity="0.2" d="M227.216 168.487C227.327 168.487 227.327 168.375 227.438 168.375L227.55 168.264C228.218 167.819 228.775 167.15 229.221 166.482C229.777 165.591 230.112 164.589 230.112 163.698L166.848 146.772L209.172 178.954L227.216 168.487Z" fill="black"/>
<path d="M81.4189 249.332C81.4189 250.223 81.7531 250.891 82.31 251.225C82.7555 251.448 83.4238 251.448 84.2034 251.003L133.433 222.607L144.683 159.467L81.4189 247.551V249.332Z" fill="#097FC9"/>
<path opacity="0.15" d="M150.809 149.779L82.31 251.225C81.7531 250.891 81.4189 250.335 81.4189 249.444V247.662L148.247 148.554L150.809 149.779Z" fill="black"/>
<path d="M229.109 166.482C228.664 167.262 228.107 167.819 227.438 168.264L227.327 168.375L84.2035 251.003C83.4239 251.448 82.7556 251.448 82.3101 251.225L150.809 149.779C153.593 145.213 159.385 143.543 164.286 145.658L229.109 166.482Z" fill="#097FC9"/>
<path opacity="0.15" d="M73.177 121.383L75.4046 122.719C75.0705 123.832 74.8477 124.835 74.8477 125.725C74.8477 128.732 74.8477 132.852 74.8477 132.852L72.6201 131.516C72.6201 131.516 72.6201 127.507 72.6201 124.389C72.7315 123.498 72.8429 122.496 73.177 121.383Z" fill="black"/>
<path d="M85.206 136.082L82.867 137.418L80.6394 136.082L74.959 132.852L77.1866 131.516L85.206 136.082Z" fill="#097FC9"/>
<path opacity="0.1" d="M85.3173 136.082L77.1866 131.516L74.959 132.852L80.6394 136.082L82.9784 137.418C83.0897 137.307 83.3125 137.307 83.4239 137.307C83.758 137.195 84.2035 137.195 84.6491 137.307L89.2156 138.977L141.676 158.242L142.455 157.017L85.3173 136.082Z" fill="black"/>
</g>
<defs>
<clipPath id="clip0">
<rect width="230" height="251" fill="white" transform="translate(0 0.670898)"/>
</clipPath>
</defs>
</svg>
