<svg width="188" height="65" viewBox="0 0 188 65" fill="none" xmlns="http://www.w3.org/2000/svg">
<g filter="url(#filter0_d)">
<path d="M11.1577 46.1485V17.081C11.1577 5.51324 24.0602 -1.75365 34.4415 4.0302C43.0431 8.92423 51.4964 13.67 60.0981 18.564C70.331 24.3478 70.331 38.7333 60.0981 44.5172C51.4964 49.4112 43.0431 54.3053 34.4415 59.051C24.0602 65.1314 11.1577 57.8645 11.1577 46.1485Z" fill="#00CC9B"/>
</g>
<path fill-rule="evenodd" clip-rule="evenodd" d="M35.1749 2.74116L35.1749 2.74121C39.4736 5.18702 43.7355 7.59593 47.9995 10.006L47.9999 10.0063C52.2626 12.4156 56.5274 14.8261 60.8295 17.2739C72.0643 23.6256 72.0646 39.4544 60.8306 45.8067C58.5424 47.1086 56.2625 48.4118 53.9861 49.713C47.7234 53.2927 41.4867 56.8575 35.1742 60.3405C23.8483 66.9583 9.67471 59.0514 9.67471 46.1485V17.081C9.67471 4.30548 23.8608 -3.56242 35.1633 2.73468L35.1749 2.74116ZM34.4415 59.051C40.749 55.571 46.9768 52.0112 53.2418 48.4302C55.5204 47.1277 57.804 45.8225 60.0981 44.5172C70.331 38.7333 70.331 24.3479 60.0981 18.564C55.7972 16.117 51.5335 13.707 47.2697 11.2971C43.006 8.88714 38.7423 6.47722 34.4415 4.03022C24.0602 -1.75364 11.1578 5.51326 11.1578 17.081V46.1485C11.1578 57.8646 24.0602 65.1315 34.4415 59.051Z" fill="white"/>
<g filter="url(#filter1_d)">
<path d="M58.615 17.0804V46.2963C58.615 57.864 45.7126 65.1309 35.3313 59.347C26.7297 54.453 18.2764 49.7073 9.67473 44.8133C-0.558244 39.0294 -0.558244 24.6439 9.67473 18.8601C18.2764 13.966 26.7297 9.072 35.3313 4.32627C45.5643 -1.75419 58.615 5.3644 58.615 17.0804Z" fill="#097FC9"/>
</g>
<path fill-rule="evenodd" clip-rule="evenodd" d="M34.5979 60.6361L34.5979 60.636C30.2997 58.1905 26.0382 55.7818 21.7746 53.372L21.7733 53.3712C17.5105 50.9618 13.2455 48.5512 8.94322 46.1033C-2.2917 39.7515 -2.29178 23.9221 8.94296 17.5701C11.2308 16.2684 13.5103 14.9655 15.7864 13.6645C22.0478 10.0855 28.2834 6.52127 34.5946 3.03896C45.755 -3.5724 60.0981 4.15551 60.0981 17.0804V46.2963C60.0981 59.0718 45.912 66.9397 34.6095 60.6426L34.5979 60.6361ZM35.3313 4.32626C29.0238 7.80628 22.796 11.3661 16.531 14.9471C14.2524 16.2495 11.9688 17.5548 9.67474 18.86C-0.558236 24.6439 -0.558236 39.0294 9.67474 44.8132C13.9755 47.2602 18.2392 49.6702 22.503 52.0801C26.7667 54.49 31.0305 56.9 35.3313 59.347C45.7126 65.1309 58.615 57.864 58.615 46.2963V17.0804C58.615 5.36438 45.5643 -1.75421 35.3313 4.32626Z" fill="white"/>
<path d="M28.0644 37.5469C28.0644 37.5469 31.0305 40.8096 35.0347 40.8096C37.2593 40.8096 39.1872 39.6232 39.1872 37.5469C39.1872 32.8012 25.6916 33.2461 25.6916 24.4962C25.6916 20.0471 29.6958 16.6361 35.183 16.6361C38.594 16.6361 43.6363 18.1191 43.6363 22.1233V24.6445H38.8906V23.4581C38.8906 22.1233 36.9627 21.3818 35.183 21.3818C32.8101 21.3818 31.0305 22.5682 31.0305 24.3479C31.0305 29.0936 44.5262 28.2038 44.5262 37.2503C44.5262 41.6994 40.9669 45.407 35.0347 45.407C28.6576 45.407 25.2466 41.1062 25.2466 41.1062L28.0644 37.5469Z" fill="white"/>
<path d="M82.1212 36.8053C82.1212 36.8053 84.4941 39.4748 87.7568 39.4748C89.2398 39.4748 90.278 38.8816 90.278 37.6952C90.278 35.174 80.3416 35.174 80.3416 29.2418C80.3416 25.5342 83.7526 23.9029 87.6085 23.9029C90.1297 23.9029 94.1339 24.7927 94.1339 27.7588V29.6868H89.9813V28.6486C89.9813 27.7588 88.6466 27.3139 87.6085 27.3139C85.9771 27.3139 84.7907 27.9071 84.7907 28.9452C84.7907 31.763 94.7271 31.1698 94.7271 37.2503C94.7271 40.6612 91.6127 42.8858 87.4602 42.8858C82.2695 42.8858 79.6001 39.6231 79.6001 39.6231L82.1212 36.8053Z" fill="white"/>
<path d="M110.299 31.0215C110.299 28.7969 108.668 27.3139 106.74 27.3139C104.367 27.3139 102.587 28.6486 102.142 31.0215H110.299ZM106.888 23.9029C112.227 23.9029 115.193 27.7588 115.193 32.5045C115.193 33.0977 115.045 34.1359 115.045 34.1359H102.142C102.587 37.3986 104.96 39.0299 107.778 39.0299C110.744 39.0299 112.968 36.9536 112.968 36.9536L114.896 40.068C114.896 40.068 112.079 42.8858 107.333 42.8858C101.104 42.8858 97.2482 38.585 97.2482 33.3944C97.2482 27.7588 101.252 23.9029 106.888 23.9029Z" fill="white"/>
<path d="M119.494 21.8266C119.494 21.2334 119.197 21.0851 118.752 21.0851H117.269V17.2292H121.718C123.498 17.2292 124.24 17.9707 124.24 19.6021V37.9918C124.24 38.4367 124.536 38.7333 124.981 38.7333H126.464V42.5892H122.015C120.235 42.5892 119.494 41.8477 119.494 40.2163V21.8266Z" fill="white"/>
<path d="M130.172 21.8266C130.172 21.2334 129.875 21.0851 129.43 21.0851H127.947V17.2292H132.396C134.176 17.2292 134.917 17.9707 134.917 19.6021V37.9918C134.917 38.4367 135.214 38.7333 135.659 38.7333H137.142V42.5892H132.693C130.913 42.5892 130.172 41.8477 130.172 40.2163V21.8266Z" fill="white"/>
<path d="M141.146 36.8053C141.146 36.8053 143.519 39.4748 146.782 39.4748C148.265 39.4748 149.303 38.8816 149.303 37.6952C149.303 35.174 139.367 35.174 139.367 29.2418C139.367 25.5342 142.778 23.9029 146.633 23.9029C149.155 23.9029 153.159 24.7927 153.159 27.7588V29.6868H149.006V28.6486C149.006 27.7588 147.672 27.3139 146.633 27.3139C145.002 27.3139 143.816 27.9071 143.816 28.9452C143.816 31.763 153.752 31.1698 153.752 37.2503C153.752 40.6612 150.638 42.8858 146.485 42.8858C141.295 42.8858 138.625 39.6231 138.625 39.6231L141.146 36.8053Z" fill="white"/>
<path d="M158.646 17.2292H162.65V21.3817H158.646V17.2292ZM158.349 28.9452C158.349 28.352 158.053 28.2037 157.608 28.2037H156.125V24.3478H160.574C162.354 24.3478 163.095 25.0893 163.095 26.7207V37.9918C163.095 38.4367 163.392 38.7333 163.837 38.7333H165.32V42.5892H160.871C159.091 42.5892 158.349 41.8477 158.349 40.2163V28.9452Z" fill="white"/>
<path d="M177.629 39.1782C180.743 39.1782 183.265 36.9536 183.265 33.5427C183.265 30.1317 180.743 27.9071 177.629 27.9071C174.663 27.9071 172.142 30.28 172.142 33.5427C171.993 36.8053 174.515 39.1782 177.629 39.1782ZM177.629 23.9029C183.413 23.9029 187.862 27.9071 187.862 33.3944C187.862 39.0299 183.265 42.8858 177.629 42.8858C171.993 42.8858 167.396 38.8816 167.396 33.3944C167.396 27.9071 171.845 23.9029 177.629 23.9029Z" fill="white"/>
<defs>
<filter id="filter0_d" x="8.19167" y="2" width="59.5811" height="62.2139" filterUnits="userSpaceOnUse" color-interpolation-filters="sRGB">
<feFlood flood-opacity="0" result="BackgroundImageFix"/>
<feColorMatrix in="SourceAlpha" type="matrix" values="0 0 0 0 0 0 0 0 0 0 0 0 0 0 0 0 0 0 127 0"/>
<feOffset dx="-1.48304" dy="1.48304"/>
<feGaussianBlur stdDeviation="0.74152"/>
<feColorMatrix type="matrix" values="0 0 0 0 0 0 0 0 0 0 0 0 0 0 0 0 0 0 0.11 0"/>
<feBlend mode="normal" in2="BackgroundImageFix" result="effect1_dropShadow"/>
<feBlend mode="normal" in="SourceGraphic" in2="effect1_dropShadow" result="shape"/>
</filter>
<filter id="filter1_d" x="2" y="2.10632" width="59.5811" height="62.237" filterUnits="userSpaceOnUse" color-interpolation-filters="sRGB">
<feFlood flood-opacity="0" result="BackgroundImageFix"/>
<feColorMatrix in="SourceAlpha" type="matrix" values="0 0 0 0 0 0 0 0 0 0 0 0 0 0 0 0 0 0 127 0"/>
<feOffset dx="1.48304" dy="1.48304"/>
<feGaussianBlur stdDeviation="0.74152"/>
<feColorMatrix type="matrix" values="0 0 0 0 0 0 0 0 0 0 0 0 0 0 0 0 0 0 0.11 0"/>
<feBlend mode="normal" in2="BackgroundImageFix" result="effect1_dropShadow"/>
<feBlend mode="normal" in="SourceGraphic" in2="effect1_dropShadow" result="shape"/>
</filter>
</defs>
</svg>
